# xmcd
#
# Track frame offsets: 
#        150
#        19320
#        42179
#        65935
#        105602
#        139429
#        164945
#        195317
#        214884
#        265406
#
# Disc length: 3988 seconds
#
# Revision: 3
# Processed by: cddbd v1.5.2PL0 Copyright (c) Steve Scherf et al.
# Submitted via: ExactAudioCopy v1.0b3
#
DISCID=a20f920a
DTITLE=Screaming Headless Torsos - Live!!
DYEAR=2002
DGENRE=Soul-Funk
TTITLE0=Just For Now
TTITLE1=Smile In A Wave
TTITLE2=Jazz Is The Teacher
TTITLE3=Blue In Green
TTITLE4=Word To Herb
TTITLE5=Hope
TTITLE6=Vinnie
TTITLE7=Darryl Dawkins' Sound Of Love
TTITLE8=Kermes Macabre
TTITLE9=Dig A Pony
EXTD=www.torsos.com YEAR: 2002
EXTT0=
EXTT1=
EXTT2=
EXTT3=
EXTT4=
EXTT5=
EXTT6=
EXTT7=
EXTT8=
EXTT9=
PLAYORDER=
